<mxfile host="app.diagrams.net" agent="Mozilla/5.0 (Windows NT 10.0; Win64; x64) AppleWebKit/537.36 (KHTML, like Gecko) Chrome/135.0.0.0 Safari/537.36" version="26.2.5">
  <diagram id="C5RBs43oDa-KdzZeNtuy" name="Page-1">
    <mxGraphModel dx="1428" dy="795" grid="1" gridSize="10" guides="1" tooltips="1" connect="1" arrows="1" fold="1" page="1" pageScale="1" pageWidth="827" pageHeight="1169" math="0" shadow="0">
      <root>
        <mxCell id="WIyWlLk6GJQsqaUBKTNV-0" />
        <mxCell id="WIyWlLk6GJQsqaUBKTNV-1" parent="WIyWlLk6GJQsqaUBKTNV-0" />
        <mxCell id="nSnrfxxBWp4Ek2YSxH7z-31" value="" style="edgeStyle=orthogonalEdgeStyle;rounded=0;orthogonalLoop=1;jettySize=auto;html=1;fontFamily=Times New Roman;" parent="WIyWlLk6GJQsqaUBKTNV-1" source="nSnrfxxBWp4Ek2YSxH7z-28" edge="1">
          <mxGeometry relative="1" as="geometry">
            <mxPoint x="120" y="90" as="targetPoint" />
          </mxGeometry>
        </mxCell>
        <mxCell id="nSnrfxxBWp4Ek2YSxH7z-28" value="Reformat Date" style="rounded=1;whiteSpace=wrap;html=1;fontSize=12;glass=0;strokeWidth=1;shadow=0;fontFamily=Times New Roman;" parent="WIyWlLk6GJQsqaUBKTNV-1" vertex="1">
          <mxGeometry x="60" y="10" width="120" height="40" as="geometry" />
        </mxCell>
        <mxCell id="nSnrfxxBWp4Ek2YSxH7z-135" value="" style="edgeStyle=orthogonalEdgeStyle;rounded=0;orthogonalLoop=1;jettySize=auto;html=1;fontFamily=Times New Roman;" parent="WIyWlLk6GJQsqaUBKTNV-1" source="nSnrfxxBWp4Ek2YSxH7z-42" target="nSnrfxxBWp4Ek2YSxH7z-133" edge="1">
          <mxGeometry relative="1" as="geometry" />
        </mxCell>
        <mxCell id="nSnrfxxBWp4Ek2YSxH7z-42" value="Split date into&amp;nbsp;&lt;div&gt;&amp;nbsp; &quot;date_parts[0]&quot; (date) and&lt;/div&gt;&lt;div&gt;&amp;nbsp; &quot;date_parts[1]&quot; (time)&lt;/div&gt;" style="rounded=0;whiteSpace=wrap;html=1;fontFamily=Times New Roman;" parent="WIyWlLk6GJQsqaUBKTNV-1" vertex="1">
          <mxGeometry x="60" y="90" width="120" height="60" as="geometry" />
        </mxCell>
        <mxCell id="nSnrfxxBWp4Ek2YSxH7z-136" value="" style="edgeStyle=orthogonalEdgeStyle;rounded=0;orthogonalLoop=1;jettySize=auto;html=1;fontFamily=Times New Roman;" parent="WIyWlLk6GJQsqaUBKTNV-1" source="nSnrfxxBWp4Ek2YSxH7z-133" target="nSnrfxxBWp4Ek2YSxH7z-134" edge="1">
          <mxGeometry relative="1" as="geometry" />
        </mxCell>
        <mxCell id="nSnrfxxBWp4Ek2YSxH7z-133" value="&lt;div&gt;Split &quot;date_parts[0]&quot; into:&lt;/div&gt;&lt;div&gt;&amp;nbsp; &quot;y&quot;, &quot;m&quot;, &quot;d&quot;&lt;/div&gt;" style="rounded=0;whiteSpace=wrap;html=1;fontFamily=Times New Roman;" parent="WIyWlLk6GJQsqaUBKTNV-1" vertex="1">
          <mxGeometry x="60" y="190" width="120" height="60" as="geometry" />
        </mxCell>
        <mxCell id="nSnrfxxBWp4Ek2YSxH7z-138" value="" style="edgeStyle=orthogonalEdgeStyle;rounded=0;orthogonalLoop=1;jettySize=auto;html=1;fontFamily=Times New Roman;" parent="WIyWlLk6GJQsqaUBKTNV-1" source="nSnrfxxBWp4Ek2YSxH7z-134" target="nSnrfxxBWp4Ek2YSxH7z-137" edge="1">
          <mxGeometry relative="1" as="geometry" />
        </mxCell>
        <mxCell id="nSnrfxxBWp4Ek2YSxH7z-134" value="&lt;div&gt;Reformat date into &quot;d&quot;-&quot;m&quot;-&quot;y&quot; &quot;&lt;span style=&quot;background-color: transparent; color: light-dark(rgb(0, 0, 0), rgb(255, 255, 255));&quot;&gt;date_parts[1]&lt;/span&gt;&lt;span style=&quot;background-color: transparent; color: light-dark(rgb(0, 0, 0), rgb(255, 255, 255));&quot;&gt;&quot;&lt;/span&gt;&lt;/div&gt;" style="rounded=0;whiteSpace=wrap;html=1;fontFamily=Times New Roman;" parent="WIyWlLk6GJQsqaUBKTNV-1" vertex="1">
          <mxGeometry x="60" y="290" width="120" height="60" as="geometry" />
        </mxCell>
        <mxCell id="nSnrfxxBWp4Ek2YSxH7z-137" value="End" style="rounded=1;whiteSpace=wrap;html=1;fontSize=12;glass=0;strokeWidth=1;shadow=0;fontFamily=Times New Roman;" parent="WIyWlLk6GJQsqaUBKTNV-1" vertex="1">
          <mxGeometry x="60" y="390" width="120" height="40" as="geometry" />
        </mxCell>
      </root>
    </mxGraphModel>
  </diagram>
</mxfile>
